<svg xmlns="http://www.w3.org/2000/svg" width="512" height="512" viewBox="0 0 256 256"><path d="M55.746 3.13c-2.925 0-5.052.83-6.482 2.725l1.797 2.96c1.164-1.464 2.726-2.028 4.62-2.028 1.563 0 2.495.965 2.495 2.594 0 1.762-.535 2.26-2.397 3.988-1.762 1.63-2.76 3.957-2.76 6.883v.334h3.592c.1-2.228.067-3.359 1.729-4.889 1.828-1.695 3.592-3.423 3.592-6.316 0-3.99-2.495-6.25-6.186-6.25zM29 6C14 6 13.5 24 8 31c0 2.729 6.622 10.406 13.84 13.28l-.266 3.056L6 53l.443 1.658A4 4 0 0 0 10.39 58h37.22a4 4 0 0 0 3.946-3.342L52 53l-15.574-5.664-.235-2.697C43.587 42.149 49 34.424 49 33c0-6-3.492-27-20-27zm3 9.5 1 4.5c2.111 0 3.708-1.473 4.48-2.354 1.28 2.4 1.52 5.17 1.52 6.854v3l.016.55.334.415c.027.033.65.812.65 2.035 0 1.679-1.401 2.8-1.406 2.805l-.362.273-.15.43C36.092 39.728 31.646 44 29 44c-2.646 0-7.092-4.272-9.082-9.992l-.15-.43-.362-.273C19.392 33.294 18 32.19 18 30.5c0-1.223.624-2.003.637-2.02l.363-.42V24.5c0-.148.015-.344.02-.508.06-.02 8.993-3.01 12.98-8.492zm22.848 7.014c-1.096 0-2.028 1.064-2.028 2.427 0 1.297.932 2.395 2.028 2.395 1.164 0 1.963-1.098 1.963-2.395 0-1.363-.8-2.427-1.963-2.427zM24.744 45.498C26.184 46.45 27.646 47 29 47s2.817-.55 4.256-1.502l.576 6.625C32.818 52.578 31.29 53 29 53s-3.818-.422-4.832-.877z" transform="scale(4)" fill="#0f172a" font-family="none" font-weight="none" font-size="none" text-anchor="none" style="mix-blend-mode:normal"/></svg>